<svg height='100px' width='100px'  fill="#0059B3" xmlns="http://www.w3.org/2000/svg" xmlns:xlink="http://www.w3.org/1999/xlink" viewBox="0 0 163 163" version="1.1" x="0px" y="0px"><title>Exit</title><desc>Created with Sketch.</desc><g stroke="none" stroke-width="1" fill="none" fill-rule="evenodd"><g fill="#0059B3" fill-rule="nonzero"><path d="M21.3387324,158.698937 C16.4571223,163.580434 8.54256006,163.580343 3.66106292,158.698732 C-1.22043422,153.817122 -1.2203426,145.90256 3.66126755,141.021063 L141.024448,3.66106292 C145.906058,-1.22043422 153.82062,-1.2203426 158.702117,3.66126755 C163.583614,8.54287771 163.583523,16.4574399 158.701913,21.3389371 L21.3387324,158.698937 Z"></path><path d="M3.66116524,21.3388348 C-1.22038841,16.4572811 -1.22038841,8.54271888 3.66116524,3.66116524 C8.54271888,-1.22038841 16.4572811,-1.22038841 21.3388348,3.66116524 L158.702015,141.024345 C163.583569,145.905899 163.583569,153.820461 158.702015,158.702015 C153.820461,163.583569 145.905899,163.583569 141.024345,158.702015 L3.66116524,21.3388348 Z"></path></g></g></svg>